<?xml version="1.0" encoding="iso-8859-1"?>
<!-- Generator: Adobe Illustrator 16.0.0, SVG Export Plug-In . SVG Version: 6.00 Build 0)  -->
<!DOCTYPE svg PUBLIC "-//W3C//DTD SVG 1.1//EN" "http://www.w3.org/Graphics/SVG/1.1/DTD/svg11.dtd">
<svg version="1.1" id="Capa_1" xmlns="http://www.w3.org/2000/svg" xmlns:xlink="http://www.w3.org/1999/xlink" x="0px" y="0px"
	 width="181.922px" height="181.923px" viewBox="0 0 181.922 181.923" style="enable-background:new 0 0 181.922 181.923;"
	 xml:space="preserve">
<g>
	<path d="M181.417,117.542c0,0,1.193-9.919-4.504-14.429c0,0-8.122-16.529-19.843-13.515c0,0-18.933,8.106-19.831-6.925
		c0,0,2.395-11.724-9.014-16.825c0,0,2.395-17.44-1.803-26.445c0,0,3.299,2.095,9.924,2.396c0,0,7.82,8.716,12.939,2.403
		c0,0,6.312-4.812,0-11.73l-7.224-8.42c0,0,2.708-4.513-8.109-13.237l-1.809-10.512l-2.707,9.623L124.933,0l-2.695,11.115
		c0,0-27.243,3.363-31.892,40.078c-1.761-0.671-3.346-1.451-3.981-2.282c-1.055-1.354-1.513-5.175-0.934-6.789
		c0.94-2.586,0.012-13.444,0.012-13.444c6.242-0.145,8.759-7.063,8.759-7.063l3.535,1.703c1.637-2.592,0.207-8.905-0.722-10.988
		C91.697,0.438,79.488,7.442,79.488,7.442c-7.861,5.518-1.611,9.549-1.611,9.549c-3.484-0.109-13.926,1.998-18.389,3.621
		c-8.49,3.067-23.669,18.654-23.669,18.654c-7.743,7.583-3.546,14.502-3.546,14.502c2.092,4.764,19.482,14.502,22.295,16.039
		c-12.413,0.121-27.769,3.274-33.644,17.043c0,0-17.129,9.023-15.616,32.158c0,0,3.298,18.932-5.128,24.057
		c0,0,21.941-12.017,18.031-40.879c0,0,1.809-5.414,3.014-0.308c0,0,0.284,18.95,20.428,27.367c0,0-1.206,4.196-6.313,7.507
		c0,0-5.115,3.9,1.809,13.512c6.924,9.635-0.295,1.206-0.295,1.206s1.489,19.836,11.112,22.543c0,0-3.287,7.513,4.823,7.814
		c0,0,12.318,1.514,4.197-7.495c0,0-12.924-5.716-11.121-21.054c0,0,9.315,3.912,18.643,3.617c0,0,8.106,2.695,8.704,6.608
		c0,0-6.313,8.121,1.806,8.121c0,0,11.73,2.707,6.626-5.71c0,0-7.82-14.434-15.33-13.831c0,0-16.834-0.893-10.816-11.727
		c0,0,1.797-3.913,0.896-10.214c0,0,8.703-2.707,11.729-9.629c0,0,29.752,3.009,38.175-5.107c0,0,1.803,11.42,15.02,26.144
		l7.813,21.953c0,0-0.301,3.003,4.209,4.19c0,0-2.412,9.629,3.31,9.327h6.904c0,0,6.312-2.11-2.395-10.22
		c0,0-9.622-10.516-10.822-24.045c0,0-1.507-8.435-5.112-12.33c0,0-6.313-12.625-0.904-21.332c0,0,1.199-4.811,9.02-3.611
		c0,0,13.512,1.809,22.531-5.42c0,0,5.427-3.605,9.942-0.893c0,0,6.608,12.33,10.521,15.326c0,0,0.296,2.099-3.617,2.4
		c0,0-6.324,2.701,4.203,9.315C176.913,126.26,183.225,128.364,181.417,117.542z M76.154,40.826c0,0,1.088,7.693,2.663,8.813
		c0,0-4.522-0.278-5.267-1.64c-0.594-1.082-0.819-6.118-0.819-6.118L76.154,40.826z M76.334,70.841l-0.18-1.626
		c-1.69-5.733-14.502-15.586-14.502-15.586c-5.804-5.503,3.127-7.489,3.127-7.489l2.143,8.443
		c3.662,6.549,19.577,3.372,19.577,3.372l2.553,1.803C87.828,63.21,84.622,68.754,76.334,70.841z"/>
</g>
<g>
</g>
<g>
</g>
<g>
</g>
<g>
</g>
<g>
</g>
<g>
</g>
<g>
</g>
<g>
</g>
<g>
</g>
<g>
</g>
<g>
</g>
<g>
</g>
<g>
</g>
<g>
</g>
<g>
</g>
</svg>
