<?xml version="1.0" encoding="iso-8859-1"?>
<!-- Generator: Adobe Illustrator 16.0.0, SVG Export Plug-In . SVG Version: 6.00 Build 0)  -->
<!DOCTYPE svg PUBLIC "-//W3C//DTD SVG 1.1//EN" "http://www.w3.org/Graphics/SVG/1.1/DTD/svg11.dtd">
<svg version="1.1" id="Capa_1" xmlns="http://www.w3.org/2000/svg" xmlns:xlink="http://www.w3.org/1999/xlink" x="0px" y="0px"
	 width="217.894px" height="217.895px" viewBox="0 0 217.894 217.895" style="enable-background:new 0 0 217.894 217.895;"
	 xml:space="preserve">
<g>
	<path d="M207.385,173.375c4.835-13.997,7.329-28.975,7.329-44.39c0-66.591-47.12-120.781-105.046-120.781
		c-57.932,0-105.055,54.19-105.055,120.781c0,15.415,2.486,30.393,7.33,44.39H0v36.315h74.417l-18.344-28.088
		c-9.916-15.179-15.158-33.372-15.158-52.617c0-46.568,30.845-84.465,68.742-84.465c37.894,0,68.742,37.896,68.742,84.465
		c0,19.257-5.249,37.45-15.155,52.617l-18.348,28.088h72.998v-36.315H207.385z M24.701,123.606
		c-3.535-0.178-6.156-5.876-5.834-12.711c0.313-6.847,3.425-12.247,6.96-12.064c3.535,0.181,6.156,5.875,5.84,12.717
		C31.366,118.393,28.242,123.783,24.701,123.606z M49.559,67.731c-3.958,5.406-9.449,7.912-12.232,5.595
		c-2.79-2.308-1.853-8.564,2.125-13.964c3.963-5.411,9.448-7.918,12.232-5.601C54.462,56.082,53.516,62.338,49.559,67.731z
		 M108.947,37.826c-4.914,0-8.904-4.232-8.904-9.454c0-5.228,3.972-9.46,8.904-9.46c4.918,0,8.902,4.232,8.902,9.46
		C117.849,33.594,113.865,37.826,108.947,37.826z M181.993,73.326c-2.79,2.317-8.27-0.189-12.235-5.595
		c-3.96-5.405-4.906-11.656-2.116-13.97c2.79-2.317,8.264,0.189,12.229,5.601C183.836,64.762,184.783,71.018,181.993,73.326z
		 M194.606,123.606c-3.534,0.177-6.667-5.214-6.963-12.058c-0.313-6.842,2.3-12.531,5.834-12.717
		c3.54-0.183,6.661,5.217,6.969,12.064C200.765,117.73,198.14,123.429,194.606,123.606z"/>
</g>
<g>
</g>
<g>
</g>
<g>
</g>
<g>
</g>
<g>
</g>
<g>
</g>
<g>
</g>
<g>
</g>
<g>
</g>
<g>
</g>
<g>
</g>
<g>
</g>
<g>
</g>
<g>
</g>
<g>
</g>
</svg>
