<?xml version="1.0" encoding="utf-8"?>
<!-- Generator: Adobe Illustrator 22.0.0, SVG Export Plug-In . SVG Version: 6.00 Build 0)  -->
<svg version="1.1" id="圖層_1" xmlns="http://www.w3.org/2000/svg" xmlns:xlink="http://www.w3.org/1999/xlink" x="0px" y="0px"
	 viewBox="0 0 1366 768" style="enable-background:new 0 0 1366 768;" xml:space="preserve">
<style type="text/css">
	.st0{opacity:0.8;enable-background:new    ;}
	.st1{opacity:0.8;}
</style>
<path class="st0" d="M762,364.5c0.2,3.1,0,3.4,0,3.4v10.6v2.9h-15.9v32.7l0.3,8.2c0,0-3.5,0-6.3,0c0.2-3.2,0.2-5.2,0.2-8.5v-42.1
	c0-2.2,0.2-4.8,0-6.8c0-0.6-0.2-0.3,6.8-0.3L762,364.5z M746.9,366.8l-0.6,0.9v3.9h10v-4.8H746.9z M756.2,378.8V374h-10v4.8H756.2z
	 M759.6,406.6c-0.2,1.8-0.9,3.9-1.2,4.8c-0.6,1.7-4.2,6-9.1,8c2.3-3.9,5.1-8.9,5.1-15.6v-14.5c0,0,17.1,0,21.7,0v17.4
	c0.5,10.3-10.2,13.3-9.6,12.6c3.4-3.1,3.9-8.5,3.9-9.6v-3.4L759.6,406.6z M770.2,404.1v-5.4h-9.9l-0.3,5.5h10.2V404.1z M770.2,396.4
	v-4.9h-9.1l-0.8,1.1v3.9H770.2z M789,364.5v48.9c-0.8,8.9-12.6,9.2-10.9,8.9c2.3-0.5,4.9-4,5.1-10.6v-30.1h-15.9v-1.8v-15.1
	c0,0,0,0,6.2,0C773.3,364.5,789.5,364.2,789,364.5z M783.1,371.9v-4.9h-9.4l-0.6,0.6v4.3L783.1,371.9L783.1,371.9z M783.1,379.1
	v-4.8H773v4.8H783.1z"/>
<path class="st0" d="M855.6,389v2.3h-36.2v3.4l34.8,0.2v2.2h-34.8l-0.2,2.9c0,0,32.2,0,35.1,0v2.3h-20c2.2,2.8,4.3,5.1,7.2,7.4
	c2.9-1.8,4.9-4.2,6-6.8l7.1,2.9c-4.9,3.2-8.3,4-11.3,4.9c6.8,6.3,12.6,5.9,18.2,6.2c0.3,0-10.5,5.4-12.5,4.9
	c-6.3-2.9-13.4-12.5-15.1-16.3l-1.4-3.2h-4.2v0.8v13.7c2.3,0.2,10.3-2.8,10.3-2.8c0.3,0-2.6,2.8-3.7,3.7c-2.3,1.7-4,2.9-10.5,4.6
	l-2.9-6c0.9,0.3,1.8,0.3,1.8,0.3v-14.3h-4.5c-3.1,18.5-14.3,20.2-14.3,20c0.2-0.2,4-3.5,6.5-10.2c2.3-6,2-15.9,2-15.9V389
	c2.5,0,6.8,0,6.8,0S853.9,389,855.6,389z M825.1,361.1c1.4,0,4,0,5.5,0v7.2h5.7v-7.2c1.2,0,4.3,0,5.4,0v7.2c0,0,9.2,0,11.4,0v16.3
	c-1.5,0-5.7,0-5.7,0h-28.2c0,0-2.3,0-5.7,0v-16.3c2.8,0,11.7,0,11.7,0C825.1,366.8,825.1,361.1,825.1,361.1z M825.1,375.6v-4.8h-6.2
	v4.9h6.2V375.6z M825.1,382.4v-4.6h-6.2v4.6H825.1z M836.2,375.6v-4.8h-5.7v4.8H836.2z M836.2,382.4v-4.6h-5.7v4.6H836.2z
	 M847.3,375.6v-4.8h-5.5v4.8H847.3z M847.3,377.7h-5.5v4.6h5.5V377.7z"/>
<path class="st0" d="M880.7,403.2v-19.4h-4.5H875v-2.3h5.7v-17.7c2.2,0,2.6,0,5.4,0v4.2v13.6c0,0,8.6,0,9.7,0v2.3h-9.7v17.1
	c2-0.5,8.9-3.1,8.9-3.1c0.2,0-7.4,8.3-19.1,13.7l-3.5-6.3C876.2,404.7,879,403.8,880.7,403.2z M900.9,399c-3.1,2.8-6,5.2-10.2,6.2
	c-0.5,0.2,6.9-5.7,9.9-13.4h-6.2h-1.1v-2.3h34.8v2.3h-21.7l0.9,0.3c-1.2,2.8-4,4.6-4,4.6h15.6h6.5c-0.2,19.9-7.6,24.4-13.3,25.4
	c2.6-1.5,8.9-10.3,7.4-23.1H914c0.6,0.3,3.7,2,3.7,2c-7.2,13.4-16.2,17.6-23.6,19.6c-0.6,0.2,12.6-6.6,17.9-21.6h-5.2
	c0.6,0.3,2.6,1.2,2.6,1.2c-8.3,11.4-17.9,14.5-19.1,14.6c-0.5,0,10.5-7.6,13.4-15.9H900.9z M903.4,384.5c0,0-3.2,0-5.4,0v-19.4
	c0.9,0,21,0,22.8,0v19.4c-2.6,0-5.7,0-5.7,0H903.4z M915.1,373.7v-6.3h-10.8l-0.9,0.6v5.7H915.1z M915.1,382.2V376h-11.7v6.2H915.1z
	"/>
<path class="st0" d="M677.4,383c1.1-3.2,2.5-5.9,2.5-5.9v33.1c0,11.6-8.9,11.9-8.9,11.9c2.6-2.5,3.9-4,3.9-12V387
	c-2,2.8-4.9,7.1-8,9.1c-0.2,0.2,11.1-19.3,14.9-33.9C685.6,371.3,680.5,378,677.4,383z M688.5,383h-2v-2.5c1.7,0,1.4,0,2.9,0h9.7
	v-18.3c0,0,5.2,0,6,0l-0.2,18.3c0,0,14.5,0,16.2,0v2.6h-15.3c1.1,3.1,14.2,25.9,18.5,30.7c-1.1-0.3-1.1-0.3-2.6-1.2
	c-5.4-3.4-8.9-6.8-16.6-21.1v19.9c0,8.6-7.6,10.9-10.2,10.9c1.7-0.9,4.3-3.1,4.3-10.9v-19.7c-3.1,7.9-3.2,8.6-4.9,12.2
	c-1.8,3.9-6.2,7.7-8,8.9c-1.1,0.6-3.2,1.5-3.5,1.5c7.2-7.7,11.6-18.8,15.4-31.1h-9.7V383z"/>
<path class="st0" d="M638.9,395.5v29.8c0,10-0.6,12.7-2.9,18c7.9-0.8,10.6-5.3,10.6-13.3v-14.1v-4.4v-7.9v-4.3v-1.8v-1.9h-7.7V395.5
	z"/>
<polygon class="st0" points="545.7,386.4 545.7,391.2 581.7,391.3 581.7,386.4 "/>
<rect x="545.7" y="399.9" class="st0" width="36" height="4.9"/>
<rect x="607.4" y="399.9" class="st0" width="23.4" height="4.9"/>
<rect x="607.4" y="413.4" class="st0" width="23.4" height="4.9"/>
<path class="st0" d="M520.2,323.9L520.2,323.9L520.2,323.9c-1.4,0-2.5,1.1-2.5,2.5s1.1,2.5,2.5,2.5l0,0l0,0H550V324h-29.8V323.9z"/>
<path class="st0" d="M529.3,339.9L529.3,339.9c-1.4,0-2.5,1.1-2.5,2.5s1.1,2.5,2.5,2.5l0,0l0,0H550V340h-20.7V339.9z"/>
<path class="st0" d="M595.3,339.8c-0.1,0-0.2,0-0.4,0c-3.4,0-13.5,0-20.4,0v4.9h20.7l0,0c1.4,0,2.5-1.1,2.5-2.5
	S596.7,339.8,595.3,339.8z"/>
<g class="st1">
	<path d="M557.7,350.5v-36.2c0-1.4,0-10.1,0-10.1c0-0.2,0-0.4,0-0.6s0-0.4,0-0.5c0.3-2.7,2.2-4.7,4.5-4.7c2.5,0,4.5,2.3,4.6,5.2
		c0,0.9,0,9,0,13.6v0.1v33.3L557.7,350.5L557.7,350.5z"/>
	<path d="M562.3,298.7c2.3,0,4.3,2.2,4.3,4.9v0.1c0,0.8,0,8.9,0,13.4v0.1v33H558v-3.6v-9v-4.1v-9.2v-4.1v-3v-2.9c0-1.3,0-5.1,0-7.9
		v-2.2c0-0.2,0-0.4,0-0.5c0-0.2,0-0.3,0-0.5c0,0,0,0,0-0.1C558.2,300.6,560.1,298.7,562.3,298.7 M562.3,298.2
		c-2.5,0-4.5,2.1-4.8,4.9l0,0c0,0,0,0,0,0.1c0,0.2,0,0.4,0,0.6s0,0.4,0,0.6c0,2.6,0,8.4,0,10.1v2.9v3v4.1v9.2v4.1v9v4.1h9.6v-33.5
		l0,0c0-4.5,0-12.7,0-13.6v-0.1C567,300.6,564.9,298.2,562.3,298.2L562.3,298.2z"/>
</g>
<g class="st1">
	<path d="M613.6,376.9v-16.5v-0.1v-4.7v-0.1V349c0-1,0-8.7,0-8.7c0.1-2.2,1.5-3.9,3.3-3.9s3.3,1.8,3.3,4v0.1v0.1v0.1
		c0,0.6,0,6.8,0,10.3v0.1v25.6h-6.6V376.9z"/>
	<path d="M616.9,336.7c1.7,0,3,1.7,3,3.7v0.1v0.1v0.1c0,0,0,0,0,0.1c0,0.9,0,6.9,0,10.3v0.1v0.4v4v4.8v3.2v4.9v3.7v4.1v0.3h-6.1V374
		v-7v-3.2v-3.4v-0.1v-4.6v-0.1v-2v-2.3V349c0-1,0-4,0-6.3c0-1.1,0-2,0-2.4v-0.1C613.9,338.3,615.3,336.7,616.9,336.7 M616.9,336.2
		c-1.9,0-3.4,1.8-3.5,4.1l0,0c0,0.5,0,7.1,0,8.7v2.2v2.3v2l0,0v4.8l0,0v3.4v3.2v7v3.2h7.1v-0.8v-4.1v-3.7v-4.9v-3.2v-4.8v-4v-0.4
		l0,0c0-3.5,0-9.8,0-10.5l0,0c0-0.1,0-0.2,0-0.3C620.4,338.1,618.8,336.2,616.9,336.2L616.9,336.2z"/>
</g>
<path class="st0" d="M640.5,355.5c1.2,0,2.1-1,2.1-2.1s-1-2.1-2.1-2.1h-0.1c-1.4,0-6.3,0-13.2,0v4.3L640.5,355.5L640.5,355.5z"/>
<path class="st0" d="M637.6,361.7c-1.7,0-6.1,0-10.4,0v3.6h10.5l0,0c1,0,1.8-0.8,1.8-1.8C639.5,362.5,638.7,361.7,637.6,361.7
	C637.7,361.7,637.6,361.7,637.6,361.7z"/>
<path class="st0" d="M650,371.6h-22.9v4.3H650l0,0c1.4,0,2.6-1,2.6-2.1C652.6,372.5,651.5,371.6,650,371.6z"/>
<path class="st0" d="M648.3,388.8c0-1.2-1.1-2.3-2.5-2.4l0,0h-0.3l0,0l0,0h-38.1v4.8l25.4,0.1l0,0h12.7l0,0l0,0h0.3l0,0
	C647.3,391.1,648.3,390,648.3,388.8z"/>
<path class="st0" d="M588.7,381.6V428c0,2,1.9,3.7,4.2,3.7s4.2-1.6,4.2-3.7v-46.4H588.7z"/>
<path class="st0" d="M528.1,381.6V428c0,2,1.9,3.7,4.2,3.7s4.2-1.6,4.2-3.7v-46.4H528.1z"/>
<g class="st1">
	<path d="M530.6,376.2c-1.2,0-2.2-1.1-2.2-2.5s1-2.5,2.2-2.5h64c1.2,0,2.2,1.1,2.2,2.5s-1,2.5-2.2,2.5H530.6z"/>
	<path d="M594.6,371.5c1.1,0,2,1,2,2.2s-0.9,2.2-2,2.2h-64c-1.1,0-2-1-2-2.2s0.9-2.2,2-2.2H594.6 M594.6,371h-64
		c-1.4,0-2.5,1.2-2.5,2.7s1.1,2.7,2.5,2.7h64c1.4,0,2.5-1.2,2.5-2.7S596,371,594.6,371L594.6,371z"/>
</g>
<path class="st0" d="M606.7,326.7c0-0.2,0-0.3,0-0.5s0-0.3,0-0.5c-0.2-1.1-1.2-2-2.4-2l0,0c0,0,0,0-0.1,0l0,0l0,0
	c-2.8,0-19.8,0.1-29.6,0.1v4.9h29.6l0,0l0,0h0.1l0,0C605.4,328.7,606.4,327.8,606.7,326.7z"/>
<path class="st0" d="M606.7,355.5c-0.2,0-0.4,0-0.6,0.1h-0.3l0,0c-10.2,0-20.8,0-28.4,0l0,0H512l0,0c-1.3,0-2.4,1.2-2.4,2.7
	s1.1,2.7,2.4,2.7l0,0l0,0h65.4h29.2c1.5,0,2.7-1.2,2.7-2.7C609.4,356.8,608.2,355.5,606.7,355.5z"/>
</svg>
