<?xml version="1.0" encoding="utf-8"?>
<!-- Generator: Adobe Illustrator 22.0.0, SVG Export Plug-In . SVG Version: 6.00 Build 0)  -->
<svg version="1.1" id="圖層_1" xmlns="http://www.w3.org/2000/svg" xmlns:xlink="http://www.w3.org/1999/xlink" x="0px" y="0px"
	 viewBox="0 0 461.2 160.5" style="enable-background:new 0 0 461.2 160.5;" xml:space="preserve">
<style type="text/css">
	.st0{opacity:0.8;enable-background:new    ;}
	.st1{opacity:0.8;}
</style>
<g>
	<path class="st0" d="M278,73.3c0.2,3.4,0,3.7,0,3.7v11.7v3.2h-17.5V128l0.3,9c0,0-3.9,0-6.9,0c0.2-3.5,0.2-5.7,0.2-9.4V81.2
		c0-2.4,0.2-5.3,0-7.5c0-0.7-0.2-0.3,7.5-0.3L278,73.3z M261.4,75.8l-0.7,1v4.3h11v-5.3H261.4z M271.6,89.1v-5.3h-11v5.3H271.6z
		 M275.4,119.7c-0.2,2-1,4.3-1.3,5.3c-0.7,1.9-4.6,6.6-10,8.8c2.5-4.3,5.6-9.8,5.6-17.2v-16c0,0,18.9,0,23.9,0v19.2
		c0.6,11.4-11.2,14.7-10.6,13.9c3.7-3.4,4.3-9.4,4.3-10.6v-3.7L275.4,119.7z M287.1,117v-6h-10.9l-0.3,6.1L287.1,117L287.1,117
		L287.1,117z M287.1,108.5v-5.4h-10l-0.9,1.2v4.3L287.1,108.5L287.1,108.5z M307.8,73.3v53.9c-0.9,9.8-13.9,10.1-12,9.8
		c2.5-0.6,5.4-4.4,5.6-11.7V92.2h-17.5v-2V73.5c0,0,0,0,6.8,0C290.5,73.3,308.3,73,307.8,73.3z M301.3,81.5v-5.4h-10.4l-0.7,0.7v4.7
		L301.3,81.5L301.3,81.5z M301.3,89.4v-5.3h-11.1v5.3H301.3z"/>
	<path class="st0" d="M381.2,100.3v2.5h-39.9v3.7l38.4,0.2v2.4h-38.4l-0.2,3.2c0,0,35.5,0,38.7,0v2.5h-22.1c2.4,3.1,4.7,5.6,7.9,8.2
		c3.2-2,5.4-4.6,6.6-7.5l7.8,3.2c-5.4,3.5-9.2,4.4-12.5,5.4c7.5,6.9,13.9,6.5,20.1,6.8c0.3,0-11.6,6-13.8,5.4
		c-6.9-3.2-14.8-13.8-16.7-18l-1.5-3.5H351v0.9V131c2.5,0.2,11.4-3.1,11.4-3.1c0.3,0-2.9,3.1-4.1,4.1c-2.5,1.9-4.4,3.2-11.6,5.1
		l-3.2-6.6c1,0.3,2,0.3,2,0.3V115h-5c-3.4,20.4-15.8,22.3-15.8,22.1c0.2-0.2,4.4-3.9,7.2-11.2c2.5-6.6,2.2-17.5,2.2-17.5v-7.9
		c2.8,0,7.5,0,7.5,0S379.3,100.3,381.2,100.3z M347.6,69.5c1.5,0,4.4,0,6.1,0v7.9h6.3v-7.9c1.3,0,4.7,0,6,0v7.9c0,0,10.1,0,12.6,0
		v18c-1.7,0-6.3,0-6.3,0h-31.1c0,0-2.5,0-6.3,0v-18c3.1,0,12.9,0,12.9,0C347.6,75.8,347.6,69.5,347.6,69.5z M347.6,85.5v-5.3h-6.8
		v5.4L347.6,85.5L347.6,85.5z M347.6,93v-5h-6.8v5H347.6z M359.8,85.5v-5.3h-6.3v5.3H359.8z M359.8,93v-5h-6.3v5H359.8z M372.1,85.5
		v-5.3H366v5.3H372.1z M372.1,87.9H366V93h6.1V87.9z"/>
	<path class="st0" d="M408.9,116V94.6h-5h-1.3V92h6.3V72.5c2.4,0,2.9,0,6,0v4.6v15c0,0,9.5,0,10.7,0v2.5h-10.7v18.9
		c2.2-0.6,9.8-3.4,9.8-3.4c0.2,0-8.2,9.2-21.1,15.1l-3.9-6.9C403.9,117.6,407,116.6,408.9,116z M431.2,111.3
		c-3.4,3.1-6.6,5.7-11.2,6.8c-0.6,0.2,7.6-6.3,10.9-14.8H424h-1.2v-2.5h38.4v2.5h-23.9l1,0.3c-1.3,3.1-4.4,5.1-4.4,5.1H451h7.2
		c-0.2,21.9-8.4,26.9-14.7,28c2.9-1.7,9.8-11.4,8.2-25.5h-6.1c0.7,0.3,4.1,2.2,4.1,2.2c-7.9,14.8-17.9,19.4-26,21.6
		c-0.7,0.2,13.9-7.3,19.7-23.8h-5.7c0.7,0.3,2.9,1.3,2.9,1.3c-9.2,12.6-19.7,16-21.1,16.1c-0.6,0,11.6-8.4,14.8-17.5h-3.1
		L431.2,111.3L431.2,111.3z M433.9,95.4c0,0-3.5,0-6,0V74c1,0,23.2,0,25.1,0v21.4c-2.9,0-6.3,0-6.3,0H433.9z M446.8,83.4v-6.9h-11.9
		l-1,0.7v6.3L446.8,83.4L446.8,83.4z M446.8,92.8V86h-12.9v6.8H446.8z"/>
	<path class="st0" d="M184.7,93.7c1.2-3.5,2.8-6.5,2.8-6.5v36.5c0,12.8-9.8,13.1-9.8,13.1c2.9-2.8,4.3-4.4,4.3-13.2V98.1
		c-2.2,3.1-5.4,7.8-8.8,10c-0.2,0.2,12.2-21.3,16.4-37.4C193.8,80.8,188.1,88.2,184.7,93.7z M197,93.7h-2.2v-2.8c1.9,0,1.5,0,3.2,0
		h10.7V70.8c0,0,5.7,0,6.6,0L215,90.9c0,0,16,0,17.9,0v2.9H216c1.2,3.4,15.7,28.6,20.4,33.9c-1.2-0.3-1.2-0.3-2.9-1.3
		c-6-3.7-9.8-7.5-18.3-23.3V125c0,9.5-8.4,12-11.2,12c1.9-1,4.7-3.4,4.7-12v-21.7c-3.4,8.7-3.5,9.5-5.4,13.5c-2,4.3-6.8,8.5-8.8,9.8
		c-1.2,0.7-3.5,1.7-3.9,1.7c7.9-8.5,12.8-20.7,17-34.3H197V93.7L197,93.7z"/>
	<path class="st0" d="M142.3,107.5v32.9c0,11-0.7,14-3.2,19.8c8.7-0.9,11.7-5.8,11.7-14.7V130v-4.9v-8.7v-4.7v-2v-2.1h-8.5V107.5
		L142.3,107.5z"/>
	<polygon class="st0" points="39.5,97.4 39.5,102.7 79.2,102.9 79.2,97.4 	"/>
	<rect x="39.5" y="112.3" class="st0" width="39.7" height="5.4"/>
	<rect x="107.5" y="112.3" class="st0" width="25.8" height="5.4"/>
	<rect x="107.5" y="127.2" class="st0" width="25.8" height="5.4"/>
	<path class="st0" d="M11.4,28.5L11.4,28.5L11.4,28.5c-1.5,0-2.8,1.2-2.8,2.8S9.8,34,11.4,34l0,0l0,0h32.9v-5.4H11.4V28.5z"/>
	<path class="st0" d="M21.4,46.2L21.4,46.2c-1.5,0-2.8,1.2-2.8,2.8c0,1.5,1.2,2.8,2.8,2.8l0,0l0,0h22.8v-5.4H21.4V46.2z"/>
	<path class="st0" d="M94.2,46.1c-0.1,0-0.2,0-0.4,0c-3.7,0-14.9,0-22.5,0v5.4h22.8l0,0c1.5,0,2.8-1.2,2.8-2.8
		C96.8,47.2,95.7,46.1,94.2,46.1z"/>
	<g class="st1">
		<path d="M52.7,57.9v-40c0-1.5,0-11.1,0-11.1c0-0.2,0-0.4,0-0.7s0-0.4,0-0.6c0.3-3,2.4-5.2,5-5.2c2.8,0,5,2.5,5.1,5.7
			c0,1,0,9.9,0,15v0.1V58L52.7,57.9L52.7,57.9z"/>
		<path d="M57.8,0.7c2.5,0,4.7,2.4,4.7,5.4v0.1c0,0.9,0,9.8,0,14.8v0.1v36.4H53v-4v-9.9v-4.5V29v-4.5v-3.3V18c0-1.4,0-5.6,0-8.7V6.8
			c0-0.2,0-0.4,0-0.6s0-0.3,0-0.6c0,0,0,0,0-0.1C53.3,2.8,55.4,0.7,57.8,0.7 M57.8,0.2c-2.8,0-5,2.3-5.3,5.4l0,0c0,0,0,0,0,0.1
			c0,0.2,0,0.4,0,0.7s0,0.4,0,0.7c0,2.9,0,9.3,0,11.1v3.2v3.3v4.5v10.1v4.5v9.9v4.5h10.6V21.4l0,0c0-5,0-14,0-15V6.3
			C63,2.8,60.7,0.2,57.8,0.2L57.8,0.2z"/>
	</g>
	<g class="st1">
		<path d="M114.4,87V68.8v-0.1v-5.2v-0.1v-7.2c0-1.1,0-9.6,0-9.6c0.1-2.4,1.7-4.3,3.6-4.3s3.6,2,3.6,4.4v0.1v0.1V47
			c0,0.7,0,7.5,0,11.4v0.1v28.2h-7.3V87H114.4z"/>
		<path d="M118,42.6c1.9,0,3.3,1.9,3.3,4.1v0.1v0.1V47c0,0,0,0,0,0.1c0,1,0,7.6,0,11.4v0.1V59v4.4v5.3v3.5v5.4v4.1v4.5v0.3h-6.7
			v-2.9v-7.7v-3.5v-3.7v-0.1v-5.1v-0.1v-2.2v-2.5v-2.5c0-1.1,0-4.4,0-6.9c0-1.2,0-2.2,0-2.6v-0.1C114.7,44.4,116.2,42.6,118,42.6
			 M118,42.1c-2.1,0-3.7,2-3.9,4.5l0,0c0,0.6,0,7.8,0,9.6v2.4v2.5v2.2l0,0v5.3l0,0v3.7v3.5v7.7V87h7.8v-0.9v-4.5v-4.1v-5.4v-3.5
			v-5.3v-4.4v-0.4l0,0c0-3.9,0-10.8,0-11.6l0,0c0-0.1,0-0.2,0-0.3C121.9,44.2,120.1,42.1,118,42.1L118,42.1z"/>
	</g>
	<path class="st0" d="M144,63.4c1.3,0,2.3-1.1,2.3-2.3s-1.1-2.3-2.3-2.3h-0.1c-1.5,0-6.9,0-14.6,0v4.7L144,63.4L144,63.4z"/>
	<path class="st0" d="M140.8,70.2c-1.9,0-6.7,0-11.5,0v4h11.6l0,0c1.1,0,2-0.9,2-2C142.9,71.1,142,70.2,140.8,70.2
		C140.9,70.2,140.8,70.2,140.8,70.2z"/>
	<path class="st0" d="M154.5,81.1h-25.3v4.7h25.3l0,0c1.5,0,2.9-1.1,2.9-2.3C157.4,82.1,156.2,81.1,154.5,81.1z"/>
	<path class="st0" d="M152.6,100.1c0-1.3-1.2-2.5-2.8-2.6l0,0h-0.3l0,0l0,0h-42v5.3l28,0.1l0,0h14l0,0l0,0h0.3l0,0
		C151.5,102.6,152.6,101.4,152.6,100.1z"/>
	<path class="st0" d="M86.9,92.2v51.2c0,2.2,2.1,4.1,4.6,4.1s4.6-1.8,4.6-4.1V92.2H86.9z"/>
	<path class="st0" d="M20.1,92.2v51.2c0,2.2,2.1,4.1,4.6,4.1s4.6-1.8,4.6-4.1V92.2H20.1z"/>
	<g class="st1">
		<path d="M22.8,86.2c-1.3,0-2.4-1.2-2.4-2.8s1.1-2.8,2.4-2.8h70.6c1.3,0,2.4,1.2,2.4,2.8s-1.1,2.8-2.4,2.8H22.8z"/>
		<path d="M93.4,81c1.2,0,2.2,1.1,2.2,2.4s-1,2.4-2.2,2.4H22.8c-1.2,0-2.2-1.1-2.2-2.4s1-2.4,2.2-2.4H93.4 M93.4,80.5H22.8
			c-1.5,0-2.8,1.3-2.8,3s1.2,3,2.8,3h70.6c1.5,0,2.8-1.3,2.8-3S95,80.5,93.4,80.5L93.4,80.5z"/>
	</g>
	<path class="st0" d="M106.8,31.6c0-0.2,0-0.3,0-0.6c0-0.2,0-0.3,0-0.6c-0.2-1.2-1.3-2.2-2.6-2.2l0,0c0,0,0,0-0.1,0l0,0l0,0
		c-3.1,0-21.8,0.1-32.6,0.1v5.4H104l0,0l0,0h0.1l0,0C105.3,33.8,106.4,32.8,106.8,31.6z"/>
	<path class="st0" d="M106.8,63.4c-0.2,0-0.4,0-0.7,0.1h-0.3l0,0c-11.2,0-22.9,0-31.3,0l0,0H2.3l0,0c-1.4,0-2.6,1.3-2.6,3
		s1.2,3,2.6,3l0,0l0,0h72.1h32.2c1.7,0,3-1.3,3-3C109.7,64.8,108.4,63.4,106.8,63.4z"/>
</g>
</svg>
